<svg viewBox="0 0 1024 1066.744" xmlns="http://www.w3.org/2000/svg"><path d="M388.655 142.35h.604c81.047 0 156.227 25.122 218.178 68.002l-1.276-.836c62.896 43.198 111.328 103.355 139.164 173.89l.89 2.564c19.808 38.162 31.425 83.32 31.425 131.19 0 4.87-.12 9.71-.357 14.523l.027-.677v.793c0 107.004-43.503 203.848-113.79 273.81l-.014.014c-69.976 70.3-166.82 113.804-273.825 113.804h-.836.044-.793c-107.005 0-203.85-43.504-273.81-113.79l-.015-.015C43.692 735.603 0 638.573 0 531.336v-.35-.775C0 423.207 43.504 326.363 113.79 256.4l.015-.014c69.976-70.3 166.82-113.804 273.825-113.804h.837-.044zm0 707.492C564.658 849.63 707.28 707.01 707.49 531.026v-.02c.263-4.025.413-8.727.413-13.464 0-36.464-8.86-70.858-24.542-101.15l.58 1.23-1.21-2.19-.885-2.373C635.012 294.51 521.427 212.17 388.61 212.17h-.002C212.605 212.38 69.983 355 69.772 530.984v.02c.212 176.02 142.86 318.65 318.865 318.836h.018zm0-488.727c93.828 0 169.89 76.063 169.89 169.89s-76.062 169.892-169.89 169.892c-93.828 0-169.89-76.063-169.89-169.89 0-93.83 76.062-169.892 169.89-169.892zm0 269.963c55.27 0 100.073-44.804 100.073-100.073s-44.804-100.073-100.073-100.073c-55.27 0-100.073 44.804-100.073 100.073 0 55.27 44.804 100.073 100.073 100.073zm634.973-200.145H695.855l-8.937-21.55c-49.093-118.996-163.973-201.33-298.15-201.868h-.067v-69.818h626.13l-57.577 167.005zm-281.926-69.818h166.26l-26.67-50.64 35.513-102.96h-306.27C666.453 246.678 711 298.412 740.666 358.78l1.036 2.335z"/></svg>