<svg enable-background="new 0 0 32 32" viewBox="0 0 32 32" xmlns="http://www.w3.org/2000/svg"><path d="m31 31.36h-4v-.72h1.64v-29.28h-25.28v29.28h1.64v.721h-4v-.721h1.64v-29.64c0-.199.161-.36.36-.36h26c.199 0 .36.161.36.36v29.64h1.64zm-15.64-13.36v-7.64h1.64c.199 0 .36-.161.36-.36v-5.246c0-.604-.406-1.141-.987-1.307l-2.774-.793c-.094-.027-.203.017-.287.065-.084.049-.153.16-.177.255-.245.981-1.123 1.667-2.137 1.667-1.012 0-1.89-.685-2.149-1.727-.023-.096-.084-.177-.169-.226-.084-.05-.186-.062-.279-.035l-2.775.794c-.581.166-.986.704-.986 1.307v5.246c0 .199.161.36.36.36h1.64v7.64c0 .199.161.36.36.36h8c.199 0 .36-.161.36-.36zm-8-11h-.72v2.64h-1.28v-4.886c0-.284.191-.537.464-.615l2.432-.695c.417 1.142 1.504 1.916 2.745 1.916 1.223 0 2.297-.753 2.737-1.917l2.437.697c.274.078.465.331.465.615v4.885h-1.28v-2.64h-.72v10.64h-7.28zm20 19v-23c0-.199-.161-.36-.36-.36h-8c-.199 0-.36.161-.36.36v23c0 .199.161.36.36.36h3c.199 0 .36-.161.36-.36v-14.64h1.279v14.64c0 .199.161.36.36.36h3c.2 0 .361-.161.361-.36zm-3-15c0-.199-.161-.36-.36-.36h-1.64v-1.28h.64c.75 0 1.36-.61 1.36-1.36v-2.642h2.279v20.282h-2.279zm-5-5.642h2.279v20.282h-2.279zm3 0h1.279v2.642c0 .353-.287.64-.64.64h-.64zm-3-1.998h7.279v1.278h-7.279z"/><path d="m0 0h32v32h-32z" fill="none"/></svg>