<svg height="64" preserveAspectRatio="none" viewBox="0 0 64 64" width="64" xmlns="http://www.w3.org/2000/svg" xmlns:xlink="http://www.w3.org/1999/xlink"><linearGradient id="a" gradientUnits="userSpaceOnUse" x1="21.75" x2="42.25" y1="35.125" y2="35.125"><stop offset="0" stop-color="#b2b2b3" stop-opacity=".3"/><stop offset=".2" stop-color="#f5f5f5" stop-opacity=".3"/><stop offset=".4" stop-color="#f5f5f5" stop-opacity=".3"/><stop offset=".6" stop-color="#ececed" stop-opacity=".2"/><stop offset="1" stop-color="#9c9c9d" stop-opacity=".3"/></linearGradient><linearGradient id="b" gradientUnits="userSpaceOnUse" x1="32" x2="32" y1="17" y2="62"><stop offset="0" stop-color="#40210f" stop-opacity=".9"/><stop offset="1" stop-color="#231815" stop-opacity=".9"/></linearGradient><linearGradient id="c" gradientUnits="userSpaceOnUse" x1="25.75" x2="38.25" y1="17.000841" y2="17.000841"><stop offset="0" stop-color="#40210f" stop-opacity=".8"/><stop offset="1" stop-color="#40210f" stop-opacity=".9"/></linearGradient><linearGradient id="d" gradientUnits="userSpaceOnUse" x1="25.75" x2="38.25" y1="17.000948" y2="17.000948"><stop offset="0" stop-color="#40210f" stop-opacity=".8"/><stop offset="1" stop-color="#40210f" stop-opacity=".8"/></linearGradient><linearGradient id="e"><stop offset=".6637168" stop-color="#806245" stop-opacity="0"/><stop offset=".9734513" stop-color="#806245" stop-opacity=".9"/></linearGradient><radialGradient id="f" cx="33.059376" cy="18.858334" gradientUnits="userSpaceOnUse" r=".339623" xlink:href="#e"/><radialGradient id="g" cx="33.396873" cy="17.616667" gradientUnits="userSpaceOnUse" r=".235124" xlink:href="#e"/><radialGradient id="h" cx="34.866665" cy="18.858334" gradientUnits="userSpaceOnUse" r=".208999" xlink:href="#e"/><radialGradient id="i" cx="35.902084" cy="17.241667" gradientUnits="userSpaceOnUse" r=".365748" xlink:href="#e"/><radialGradient id="j" cx="30.922916" cy="18.283333" gradientUnits="userSpaceOnUse" r=".365748" xlink:href="#e"/><radialGradient id="k" cx="25.871876" cy="18.045834" gradientUnits="userSpaceOnUse" r=".339623" xlink:href="#e"/><radialGradient id="l" cx="28.154862" cy="18.726389" gradientUnits="userSpaceOnUse" r=".296082" xlink:href="#e"/><radialGradient id="m" cx="29.387501" cy="19.545834" gradientUnits="userSpaceOnUse" r=".208999" xlink:href="#e"/><radialGradient id="n" cx="26.917707" cy="19.345833" gradientUnits="userSpaceOnUse" r=".235124" xlink:href="#e"/><radialGradient id="o" cx="38.209374" cy="18.304167" gradientUnits="userSpaceOnUse" r=".235124" xlink:href="#e"/><linearGradient id="p" gradientUnits="userSpaceOnUse" x1="21.75" x2="42.25" y1="30.125" y2="30.125"><stop offset="0" stop-color="#c10d23"/><stop offset=".15" stop-color="#e10f29"/><stop offset=".5" stop-color="#ff112e"/><stop offset=".85" stop-color="#e00f28"/><stop offset="1" stop-color="#c10d23"/></linearGradient><linearGradient id="q" gradientUnits="userSpaceOnUse" x1="32" x2="32" y1="62" y2="57"><stop offset="0" stop-color="#231815" stop-opacity=".3"/><stop offset=".9" stop-color="#231815" stop-opacity="0"/></linearGradient><linearGradient id="r" gradientUnits="userSpaceOnUse" x1="22" x2="28.71875" y1="35.125" y2="35.125"><stop offset="0" stop-color="#231815" stop-opacity=".3"/><stop offset="1" stop-color="#231815" stop-opacity="0"/></linearGradient><linearGradient id="s" gradientUnits="userSpaceOnUse" x1="35.28125" x2="42" y1="35.125" y2="35.125"><stop offset="0" stop-color="#231815" stop-opacity="0"/><stop offset="1" stop-color="#231815" stop-opacity=".3"/></linearGradient><linearGradient id="t" gradientUnits="userSpaceOnUse" x1="26.21875" x2="26.21875" y1="62" y2="8.25"><stop offset="0" stop-color="#fff" stop-opacity="0"/><stop offset=".2" stop-color="#fff" stop-opacity=".8"/><stop offset=".8" stop-color="#fff" stop-opacity=".8"/><stop offset="1" stop-color="#fff" stop-opacity="0"/></linearGradient><linearGradient id="u" gradientUnits="userSpaceOnUse" x1="30.47699" x2="30.47699" y1="62" y2="61.39856"><stop offset="0" stop-color="#fff" stop-opacity="0"/><stop offset=".2" stop-color="#fff" stop-opacity=".5"/><stop offset=".8" stop-color="#fff" stop-opacity=".5"/><stop offset="1" stop-color="#fff" stop-opacity="0"/></linearGradient><linearGradient id="v"><stop offset="0" stop-color="#fff" stop-opacity="0"/><stop offset=".2" stop-color="#fff" stop-opacity=".2"/><stop offset=".8" stop-color="#fff" stop-opacity=".2"/><stop offset="1" stop-color="#fff" stop-opacity="0"/></linearGradient><linearGradient id="w" gradientUnits="userSpaceOnUse" x1="37.78125" x2="37.78125" xlink:href="#v" y1="62" y2="8.25"/><linearGradient id="x" gradientUnits="userSpaceOnUse" x1="33.52301" x2="33.52301" xlink:href="#v" y1="62" y2="61.39856"/><linearGradient id="y" gradientUnits="userSpaceOnUse" x1="27.0625" x2="36.9375" y1="7.625" y2="7.625"><stop offset="0" stop-color="#d9dada"/><stop offset=".2" stop-color="#f5f5f5"/><stop offset=".4" stop-color="#f5f5f5"/><stop offset=".6" stop-color="#ececed"/><stop offset="1" stop-color="#9c9c9d"/></linearGradient><linearGradient id="z" gradientUnits="userSpaceOnUse" x1="27.0625" x2="36.9375" y1="4.5" y2="4.5"><stop offset="0" stop-color="#ececed"/><stop offset=".2" stop-color="#f5f5f5"/><stop offset=".4" stop-color="#f5f5f5"/><stop offset=".6" stop-color="#ececed"/><stop offset="1" stop-color="#9c9c9d"/></linearGradient><path d="m37 62.25c-1.1914063 0-1.8505859-.2763672-2.4033203-.5478516-.3994141.3681641-.8417969.5478516-1.3466797.5478516h-2.5c-.5048828 0-.9472656-.1796875-1.3461914-.5478516-.5532227.2714844-1.2133789.5478516-2.4038086.5478516h-1.25c-1.4335938 0-4-2.6464844-4-5.25v-3.9091797c0-1.7119141.4946289-2.7949219 1.0180664-3.9414063.6054688-1.3261718 1.2319336-2.6972656 1.2319336-5.274414 0-2.4042969-.565918-4.1611328-1.112793-5.8613281-.559082-1.7353516-1.137207-3.53125-1.137207-6.0136719l.0253906-5.0014648c-.0258789-2.5571289 1.0024414-4.6137695 3.7509766-10.1103516 2.440918-4.8813477 2.4736328-8.6015625 2.4736328-8.6381836l.0004883-.25h7.9995117v.25c0 .0366211.0332031 3.7568359 2.4736328 8.6381836 2.7480469 5.4956055 3.7763672 7.5522461 3.7763672 10.1118164v5c0 2.4824219-.578125 4.2783203-1.1367188 6.0136719-.5478515 1.7001953-1.1132812 3.4570312-1.1132812 5.8613281 0 2.5771484.6259766 3.9482422 1.2314453 5.2744141.5244141 1.1464843 1.0185547 2.2294922 1.0185547 3.9414062v3.9091797c0 2.6035156-2.5664063 5.25-4 5.25z" fill="url(#a)"/><path d="m35.75 8.25s0 3.75 2.5 8.75c2.7097588 5.419529 3.75 7.5 3.75 10v5c0 4.8863525-2.25 6.9886475-2.25 11.875s2.25 5.625 2.25 9.2159424v3.9090576c0 2.5-2.5 5-3.75 5-.6220245 0-.6249847 0-.6249847 0s-.0030823 0-.624897 0c-1.2184982 0-1.8429489-.2970009-2.4525681-.6014404-.3435097.3624916-.7603798.6014404-1.2975502.6014404-1.25 0-1.25 0-2.5 0-.5371704 0-.9540405-.2389488-1.2975502-.6014404-.6096191.3044395-1.2340698.6014404-2.45257.6014404-1.2501202 0-.9793091 0-1.2498798 0-1.25 0-3.75-2.5-3.75-5 0-1.2216187 0-1.4658813 0-3.9090576 0-3.5909424 2.25-4.3295937 2.25-9.2159424s-2.25-6.9886475-2.25-11.875l.0251598-5c-.0251598-2.5 1.0150795-4.580471 3.7248402-10 2.5-5 2.5-8.75 2.5-8.75h3.75zm0-.5h-3.75-3.75-.4987507l-.0012493.4993782c-.0000896.0365105-.0369797 3.706562-2.4472103 8.5270119-2.7682095 5.5364304-3.8039799 7.6079712-3.7775993 10.2286415l-.0251808 4.9924469c-.0000096 2.5242042.5841407 4.3385887 1.1490497 6.0932503.5661716 1.7585601 1.1009407 3.4196014 1.1009407 5.7842712 0 2.5221901-.6147499 3.8685074-1.2092705 5.1704903-.5352001 1.1721077-1.0407295 2.2792205-1.0407295 4.0454521v3.9090576c0 2.7821884 2.6891098 5.5 4.25 5.5h1.2498798c1.1348286 0 1.8280754-.250248 2.3648129-.5020485.4119854.3334045.8765697.5020485 1.3853073.5020485h2.5c.5087357 0 .97332-.168644 1.3853073-.5020485.5367355.2518005 1.2299843.5020485 2.364811.5020485h.6249008.6249809c1.5608902 0 4.25-2.7178116 4.25-5.5v-3.9090576c0-1.7662315-.5055313-2.8733444-1.0407295-4.0454521-.5945206-1.3019829-1.2092705-2.6483002-1.2092705-5.1704903 0-2.3646698.534771-4.0257111 1.1009407-5.7842712.5649109-1.7546616 1.1490593-3.5690461 1.1490593-6.0907288v-5c0-2.6180191-1.03545-4.6889191-3.8027382-10.2235184-2.4102821-4.8205414-2.4471702-8.4905929-2.4472618-8.5271034l-.0012398-.4987488z" fill="#595757"/><path d="m42 27c0-2.5-1.0402222-4.5805054-3.75-10 0 1.25-2.5 1.25-5 0-2.5 1.25-7.5 1.25-7.5 0-2.7097778 5.4194946-3.75 7.5-3.7248535 10l-.0251465 5c0 4.8863525 2.25 6.9886475 2.25 11.875s-2.25 5.625-2.25 9.2159424v3.9090576c0 2.5 2.5 5 3.75 5h1.2498779c1.2185059 0 1.8429565-.2969971 2.4525757-.6014404.3435059.3624878.760376.6014404 1.2975464.6014404h2.5c.5371704 0 .9540405-.2389526 1.2975464-.6014404.6096191.3044433 1.2340698.6014404 2.4525757.6014404h1.2498779s3.75-2.5 3.75-5c0-1.2783813 0-1.4658813 0-3.9090576 0-3.5909424-2.25-4.3295899-2.25-9.2159424s2.25-6.9886475 2.25-11.875z" fill="url(#b)"/><path d="m33.25 17c2.5 1.25 5 1.25 5 0-.1015625-.203064-.1925049-.4005127-.2859497-.5993042-.7218018-.5978394-2.7160034-.3997192-4.7140503.5993042z" fill="url(#c)"/><path d="m33.25 17c-2.239563-1.119751-6.4741211-1.2332153-7.3345337-.3467407-.0560303.1160888-.1067505.229248-.1654663.3467407 0 1.25 5 1.25 7.5 0z" fill="url(#d)"/><circle cx="33.072918" cy="18.885418" fill="url(#f)" r=".40625"/><circle cx="33.40625" cy="17.635418" fill="url(#g)" r=".28125"/><circle cx="34.875" cy="18.875" fill="url(#h)" r=".25"/><circle cx="35.916668" cy="17.270832" fill="url(#i)" r=".4375"/><circle cx="30.9375" cy="18.3125" fill="url(#j)" r=".4375"/><circle cx="25.885416" cy="18.072918" fill="url(#k)" r=".40625"/><circle cx="28.166666" cy="18.75" fill="url(#l)" r=".354167"/><circle cx="29.395834" cy="19.5625" fill="url(#m)" r=".25"/><circle cx="26.927082" cy="19.364582" fill="url(#n)" r=".28125"/><circle cx="38.21875" cy="18.322918" fill="url(#o)" r=".28125"/><path d="m23.4165039 39.75-.0517578-.1816406c-.1499023-.5273438-.3139648-1.0371094-.4775391-1.5478516-.559082-1.7382812-1.137207-3.5361328-1.137207-6.0205078l.0253906-5.0014648c-.0200195-1.953125.6245117-3.6733398 1.9003906-6.355957l.0678711-.1425782h16.5131836l.0673828.1425781c1.2773438 2.6821289 1.9257813 4.4018555 1.9257813 6.3574219v5c0 2.484375-.578125 4.2822266-1.1367188 6.0205078-.1640625.5107422-.328125 1.0205078-.4785156 1.5478516l-.0517578.1816406z" fill="url(#p)"/><path d="m40.0989418 20.75c1.3456993 2.8259888 1.9010582 4.4298096 1.9010582 6.25v5c0 3.1621704-.9404297 5.1606407-1.6054115 7.5h-16.7891789c-.6649799-2.3393593-1.6054096-4.3378296-1.6054096-7.5l.0251503-5c-.0183105-1.8201904.5320988-3.4240112 1.8764591-6.25zm.3156967-.5h-.3156967-16.1973324-.3158398l-.1356697.2852097c-1.2925205 2.7169991-1.9451103 4.4636192-1.9249191 6.4698219l-.0251713 4.9924583c-.0000095 2.5267029.5841999 4.3435707 1.14917 6.1006089.1630611.5071106.32621 1.0141907.4752808 1.5386124l.1032695.3632888h.3776798 16.7891788.3776817l.1032715-.3632889c.1490669-.5244217.3122177-1.0315018.4752769-1.5386124.5649721-1.7570381 1.1491815-3.5739059 1.1491815-6.0980987v-5c0-2.0040588-.656559-3.7495003-1.9496307-6.4649696z" fill="#804047"/><path d="m32 35.2939453c3.737854-1.317688 7.6280518-.8313599 9.711731-.3933716.0341797-.1729126.0664673-.3482056.095459-.5275879-2.0295411-.3977661-5.9169312-.8574218-9.80719.3425904-3.8116455 1.1757202-7.6174927.7579956-9.678894.3665161.1186523.565918.2630615 1.0999146.4179688 1.6209106 1.9704589.1201783 5.2639159-.000061 9.2609252-1.4090576z" fill="#f5f5f5"/><path d="m32 35.8723145c-3.4706421 1.4273682-6.9368896 1.5328369-9.0862427 1.4049072.100647.3202515.2019043.6397095.303894.958313 2.1636964-.0650635 5.4682618-.421875 8.7823487-1.7849121 3.6959839-1.5200806 7.3811646-1.0423584 9.4815063-.5360718.0466309-.1790161.0900269-.3619995.1321411-.5466309-2.0753173-.5172729-5.8402099-1.0475464-9.6136474.5043946z" fill="#f5f5f5"/><g fill="#fff"><path d="m29.835804 32.3212471c.0092754.1073875.0649147.2400093.0209408.3184166-.7909527 1.4102669-1.9190578 2.1343231-3.5068417 1.7644882-.7992554-.186161-1.4191418-.6611938-1.7851849-1.3665886-.9239349-1.7805004-1.0236034-3.6194382-.0873318-5.4162407.9095325-1.7454853 2.7408619-2.1644936 4.4094658-1.0947437.0502415.0322094.1012554.0632477.1714478.1070137.0799465-.1696186.1526165-.3237991.2252865-.4779778.0417633.0070095.0835247.0140171.125288.0210266.0784321.8347321.1588554 1.6693039.2276058 2.5048084.0025978.03158-.1078739.0721874-.1933441.12603-.1162453-.2802429-.1922646-.5529556-.3345604-.7864819-.2386684-.3916874-.4739056-.8017006-.7917995-1.1269894-.7527313-.7702446-1.9749947-.6889477-2.6727238.1325989-.4752254.5595551-.6885967 1.2271862-.7847252 1.9322014-.1805172 1.3239403.0173874 2.5791073.710125 3.7506332.9900074 1.674263 2.7849388 1.2407303 3.6339397.2898369.1859837-.2083015.34828-.4371262.5214844-.6565018.0369759-.0071753.0739517-.0143507.1109276-.02153z"/><path d="m30.2931156 30.7086906c-.0015278-.8277664.2715969-1.5456314.901577-2.1083546.7542744-.6737461 1.7601795-.5914173 2.404707.1850948.8860855 1.0675373.8609543 2.7920513-.0558319 3.8309555-.84132.953392-2.1126442.8564949-2.79109-.2127266-.328455-.5176429-.4534493-.9809512-.4593621-1.6949691zm3.1885739.218422c-.0406609-.9850807-.1837845-1.6649914-.7443199-2.1857891-.3689957-.3428345-.7989197-.3124981-1.1255379.0720501-.1019154.1199913-.2085438.2495995-.2627983.3932133-.403223 1.067379-.4311333 2.1281109.1098576 3.1642666.1763248.3377151.4561672.544632.8548374.5355721.3965569-.0090065.6528625-.2630081.7701073-.5906792.2602538-.4046136.3134002-1.0851975.3978538-1.3886338z"/><path d="m39.4128342 32.6577339c-.3925171.2052994-.7456741.4622993-1.1414642.5789871-.5104332.150486-.789547-.0829582-.8692665-.6029091-.113018-.7371273.1425972-1.3086452.7953911-1.6992512.3048706-.1824245.6207924-.3503418.9069366-.5579624.1074066-.0779285.1962509-.2469921.2034912-.3792896.0171051-.3126144.0067558-.6321621-.0419693-.9413395-.0547752-.3475838-.3457031-.5198612-.7090149-.4723206-.3969307.051939-.5626602.2406273-.5615311.6169605.0005417.1804104.0328331.3947659-.0521889.5317459-.0838699.1351242-.2976952.1919765-.4545059.2831707-.0669861-.1279278-.1907005-.2553501-.1918793-.3838615-.008503-.9284515 1.3221321-1.7818165 2.1918182-1.4143295.3767281.1591873.5046921.4762821.5058708.8553123.0027199.8736553.00037 1.747324.0028992 2.6209793.0004196.145153.0049286.2916393.0249481.4351578.0745964.5348282.2128944.5919342.7130661.2117004 0 .1888123.0371895.334404-.0072899.4493256-.1128731.2916336-.329155.4866524-.668045.4820595-.4382629-.0059432-.5410079-.3569106-.6472663-.6141357zm-.0947914-2.0503597c-.2763519.181385-.4995842.3069592-.6984138.4627571-.4184723.3279095-.6062241.755312-.4793205 1.2811413.0611076.2532158.2322617.4007759.513237.3448601.3273163-.065136.6549339-.4513855.6623154-.7831593.009117-.4099197.0021819-.8201847.0021819-1.3055992z"/><path d="m36.136055 24.6928711c0 .9010239.0010262 1.7234726-.0002136 2.5459194-.0025253 1.6733818-.0017319 3.3467941-.0131912 5.0201206-.0024109.3517952.115963.530735.4965591.4740944.0692329-.0103035.1427994.0076408.2387009.0142136.0074883.1309204.0141335.2470627.022377.3911324-.7275925 0-1.4342957 0-2.1746178 0 0-.1114998 0-.2345657 0-.3580666.0216751-.0132179.0411301-.0348969.0621338-.0364685.6669464-.0499229.6692924-.0496368.6668091-.7053947-.0067482-1.7821064-.0197029-3.5642033-.020649-5.3463078-.0002174-.4099102-.0916176-.7384739-.526989-.9013004-.0580978-.0217285-.1089134-.2570896-.0823708-.2745686.4143182-.2728615.8419343-.5261345 1.3314515-.8233738z"/></g><path d="m40.3511353 21.291626h-16.701355c-.0775757.1671753-.1598511.3413086-.2313843.5h17.1644897c-.0716552-.1586914-.1540527-.3328247-.2317504-.5z" fill="#f5f5f5"/><path d="m23.1096802 22.5h17.7828369c-.0343628-.0807495-.0731201-.1671143-.1092529-.25h-17.5646363c-.0360107.0828857-.074646.1692505-.1089477.25z" fill="#f5f5f5"/><path d="m23.4863281 39.104126h17.0273438c.0375366-.125.0741577-.2512207.1127319-.375h-17.2528076c.0385742.1237793.0751953.25.1127319.375z" fill="#f5f5f5"/><path d="m38.25 60.75c-1.8514404 0-2.3320923-.0014038-2.9644165-.5090942.6611328-1.4406128.9638061-3.2409058 1.7144165-3.2409058-2.5 0-2.5 3.75-3.75 3.75s-1.25 0-2.5 0-1.25-3.75-3.75-3.75c.7506104 0 1.0532837 1.800293 1.7144165 3.2409058-.6323242.5076904-1.1129761.5090942-2.9644165.5090942-2.5 0-3.75-3.75-3.75-3.75 0 2.5 2.5 5 3.75 5s0 0 1.2498779 0c1.2185059 0 1.8429565-.2969971 2.4525757-.6014404.0791626.0835571.1627197.1591187.2506104.227417.0194092.0153198.039917.0288086.0597534.043335.0756836.0543213.1529541.1053467.2354736.1469727.0495605.0255737.1032715.0432129.1554565.0637207.0629883.0241699.1240234.052063.1911011.0683594.1275025.0320433.2613526.0516356.4051514.0516356h2.5c.1437988 0 .2776489-.0195923.4051514-.0516357.0670776-.0162964.1281128-.0441895.1911011-.0683594.0521851-.0205078.105896-.038147.1554565-.0637207.0825195-.041626.15979-.0926514.2354736-.1469727.0198364-.0145264.0403442-.0280151.0597534-.043335.0878906-.0682983.1714478-.1438599.2506104-.227417.6096191.3044434 1.2340698.6014405 2.4525757.6014405h1.2498779s3.75-2.5 3.75-5c0 0-1.25 3.75-3.75 3.75z" fill="url(#q)"/><path d="m23.25 57c0-1.2216187 0-1.4658813 0-3.9090576 0-3.5909424 1.96875-4.3295899 1.96875-9.2159424s-1.96875-6.9886475-1.96875-11.875l.0220337-5c-.0220337-2.5.8881836-4.5805054 3.2592163-10 2.1875-5 2.1875-8.75 2.1875-8.75h-.46875s0 3.75-2.5 8.75c-2.7097778 5.4194946-3.75 7.5-3.7248535 10l-.0251465 5c0 4.8863525 2.25 6.9886475 2.25 11.875s-2.25 5.625-2.25 9.2159424v3.9090576c0 2.5 2.5 5 3.75 5h.78125c-1.09375 0-3.28125-2.5-3.28125-5z" fill="url(#r)"/><path d="m42 27c0-2.5-1.0402222-4.5805054-3.75-10-2.5-5-2.5-8.75-2.5-8.75h-.46875s0 3.75 2.1875 8.75c2.3710327 5.4194946 3.28125 7.5 3.28125 10v5c0 4.8863525-1.96875 6.9886475-1.96875 11.875s1.96875 5.625 1.96875 9.2159424v3.9090576c0 2.5-2.1875 5-3.28125 5h.78125c1.25 0 3.75-2.5 3.75-5 0-1.2783813 0-1.4658813 0-3.9090576 0-3.5909424-2.25-4.3295899-2.25-9.2159424s2.25-6.9886475 2.25-11.875z" fill="url(#s)"/><path d="m24.5 57c0-1.2216187 0-1.4658813 0-3.9090576 0-3.5909424 1.6875-4.3295899 1.6875-9.2159424s-1.6875-6.9886475-1.6875-11.875l.0188599-5c-.0188599-2.5.7612915-4.5805054 2.7936401-10 1.875-5 1.875-8.75 1.875-8.75h-.46875s0 3.75-2.1875 8.75c-2.3710327 5.4194946-3.28125 7.5-3.2592163 10l-.0220337 5c0 4.8863525 1.96875 6.9886475 1.96875 11.875s-1.96875 5.625-1.96875 9.2159424v3.9090576c0 2.5 2.1875 5 3.28125 5h.78125c-.9375 0-2.8125-2.5-2.8125-5z" fill="url(#t)"/><path d="m30.0893555 61.3985596c-.06427.0427856-.131958.083374-.197876.125061.2772827.2876587.604248.4763794 1.0147705.4763794h.15625c-.4028931 0-.7155151-.2389526-.9731445-.6014404z" fill="url(#u)"/><path d="m40.75 27c0-2.5-.9102173-4.5805054-3.28125-10-2.1875-5-2.1875-8.75-2.1875-8.75h-.46875s0 3.75 1.875 8.75c2.0323486 5.4194946 2.8125 7.5 2.8125 10v5c0 4.8863525-1.6875 6.9886475-1.6875 11.875s1.6875 5.625 1.6875 9.2159424v3.9090576c0 2.5-1.875 5-2.8125 5h.78125c1.09375 0 3.28125-2.5 3.28125-5 0-1.2783813 0-1.4658813 0-3.9090576 0-3.5909424-1.96875-4.3295899-1.96875-9.2159424s1.96875-6.9886475 1.96875-11.875z" fill="url(#w)"/><path d="m33.9106445 61.3985596c-.2576294.3624878-.5702514.6014404-.9731445.6014404h.15625c.4105225 0 .7374878-.1887207 1.0147705-.4763794-.065918-.041687-.1336059-.0822754-.197876-.125061z" fill="url(#x)"/><path d="m28.0336914 8.5c-.390625 0-.9711914-.2329102-.9711914-.875s.5805664-.875.9711914-.875h7.9331055c.390625 0 .9707031.2329102.9707031.875s-.5800781.875-.9707031.875z" fill="url(#y)"/><path d="m35.9663506 7s.7211494 0 .7211494.625-.7211494.625-.7211494.625h-7.9327011s-.7211494 0-.7211494-.625.7211493-.625.7211493-.625zm0-.5h-7.9327011c-.4908696 0-1.2211495.2995987-1.2211495 1.125s.7302799 1.125 1.2211494 1.125h7.9327011c.4908676 0 1.2211494-.2995987 1.2211494-1.125s-.7302817-1.125-1.2211493-1.125z" fill="#595757"/><path d="m27.0625 1.75h9.875v5.5h-9.875z" fill="url(#z)"/><path d="m36.6875 2v5h-9.375v-5zm.5-.5h-.5-9.375-.5v.5 5 .5h.5 9.375.5v-.5-5z" fill="#595757"/></svg>