<svg enable-background="new 0 0 500 500" viewBox="0 0 500 500" xmlns="http://www.w3.org/2000/svg"><path d="m416.438 160.92h-42.005l27.765-34.739c5.847-7.361 7.429-15.822 3.508-18.986-3.921-3.165-11.832.275-17.748 7.635l-36.816 46.09h-267.58c-14.721 0-26.553 11.901-26.553 26.622v179.818c0 14.79 11.832 26.622 26.553 26.622h332.876c14.721 0 26.553-11.832 26.553-26.622v-179.817c0-14.722-11.832-26.623-26.553-26.623z" fill="#fff" stroke="#fff" stroke-miterlimit="10" stroke-width="10"/><path d="m442.991 187.543v179.817c0 14.79-11.832 26.622-26.553 26.622h-332.876c-14.721 0-26.553-11.832-26.553-26.622v-179.817c0-14.721 11.832-26.622 26.553-26.622h332.876c14.721-.001 26.553 11.9 26.553 26.622z" fill="#343434"/><path d="m400.066 194.422v164.34c0 12.657-10.181 22.838-22.838 22.838h-285.824c-12.657 0-22.907-10.181-22.907-22.838v-164.34c0-12.657 10.25-22.839 22.907-22.839h285.823c12.658 0 22.839 10.181 22.839 22.839z" fill="#8ecdfc"/><path d="m420.428 284.193c-3.302 0-5.985-2.683-5.985-6.122 0-3.371 2.683-6.054 5.985-6.054 3.233 0 5.916 2.683 5.916 6.054 0 3.439-2.683 6.122-5.916 6.122z" fill="#fff"/><path d="m91.404 171.583c-2.476 0-4.884.413-7.085 1.101l298.274 208.296c10.043-2.407 17.473-11.419 17.473-22.219v-164.34c0-12.657-10.181-22.839-22.838-22.839h-285.824z" fill="#a8f1e5"/><path d="m405.707 107.195c-3.921-3.165-11.832.275-17.748 7.635l-118.801 148.726c-4.54 5.641-6.535 11.969-5.434 16.028-.275.275-.482.619-.757.894-2.476 3.027-3.164 6.535-1.651 7.705 1.513 1.238 4.747-.207 7.154-3.302.344-.344.619-.757.826-1.169 4.196 0 9.699-3.302 14.033-8.805l118.87-148.724c5.847-7.362 7.429-15.823 3.508-18.988z" fill="#343434"/></svg>