<svg viewBox="0 0 300 300.621" xmlns="http://www.w3.org/2000/svg"><path d="M25 25.12v50a25 25 0 0 0 25 25h3.75l9.75 66.126a25 25 0 0 0 25 21.375H212a25 25 0 0 0 25-21.374l9.25-66.125H250a25 25 0 0 0 25-25v-50zm186.75 137.5H88.25L79 100.12h142zM250 75.12H50v-25h200zm-137.5 75l-6.25-37.5H125l6.25 37.5zm2.125 91.376a33.5 33.5 0 0 1 7.875 21.125 32.375 32.375 0 0 1-8.875 22.126 46.125 46.125 0 0 1-5.75 5.125l-2 1.376a1.125 1.125 0 0 1-.75 0L100 282.87l-4.75-8.75h.875a15.5 15.5 0 0 0 2.75-2.5 12.5 12.5 0 0 0 3.625-9c0-3.25-1.125-5.124-4.25-9.374a34.25 34.25 0 0 1-7.875-20.875 39.375 39.375 0 0 1 8.25-23 40.625 40.625 0 0 1 5.25-6.124l1.75-1.75h.625l6.375 7.75 6.375 7.75-1 1a29.125 29.125 0 0 0-3.25 3.875 18.625 18.625 0 0 0-4.375 11.126c0 3.25 1.125 5.125 4.375 9.375zm50 0a33.5 33.5 0 0 1 7.875 21.125 32.375 32.375 0 0 1-8.875 22.126 46.125 46.125 0 0 1-5.75 5.125l-2 1.376a1.125 1.125 0 0 1-.75 0l-4.75-8.75-4.75-8.75h.875a15.5 15.5 0 0 0 2.75-2.5 12.5 12.5 0 0 0 3.25-8.625c0-3.25-1.125-5.124-4.25-9.374a34.25 34.25 0 0 1-7.875-20.875 39.375 39.375 0 0 1 8.25-23 40.625 40.625 0 0 1 5.25-6.124l1.75-1.75h.625l6.375 7.75 6.375 7.75-1 1a29.125 29.125 0 0 0-3.25 3.875 18.625 18.625 0 0 0-4.375 11.126c0 3.25 1.125 5.125 4.375 9.375zm50 0a33.5 33.5 0 0 1 7.875 21.125 32.375 32.375 0 0 1-8.875 22.126 46.125 46.125 0 0 1-5.75 5.125l-2 1.376a1.125 1.125 0 0 1-.75 0l-4.75-8.75-4.75-8.75h.875a15.5 15.5 0 0 0 2.75-2.5 12.5 12.5 0 0 0 3.25-8.625c0-3.25-1.125-5.124-4.25-9.374a34.25 34.25 0 0 1-7.875-20.875 39.375 39.375 0 0 1 8.25-23 40.625 40.625 0 0 1 5.25-6.124l1.75-1.75 6.375 7.75 6.375 7.75-1 1a29.125 29.125 0 0 0-3.25 3.875 18.625 18.625 0 0 0-4.375 11.126c0 3.25 1.125 5.125 4.375 9.375z"/></svg>