<svg height="32" viewBox="0 0 32 32" width="32" xmlns="http://www.w3.org/2000/svg"><path d="m14.0736778 13.5301119c-.1273533.0904226-.2530091.1822036-.3770174.2745453l1.0352085 1.5911806-.8382169.5453368-.9931615-1.5265514c-.1413335.1098642-.2804228.2179825-.4173557.3229487l.9487349 1.4582651-.838217.5453369-.9199973-1.4140937c-.1515642.1018031-.3003783.1952457-.4465864.2780219l.9048005 1.3907351-.838217.5453369-1.018263-1.5651342c-.0928571.0157243-.184638.0239601-.2753895.0239601-.36720412 0-.700515 0-1.00000004 0h.00000001v.5c0 .1793064.05066491.4832958.1972136.7763932.23060534.4612107.62419954.7236068 1.30278643.7236068h5.5c.6339131 0 1.0840689.3001039 1.3222136.7763932.0917848.1835697.1410323.3620823.1630963.5191101 1.962151-.323983 4.5146901-.2597417 4.5146901-.2597417h7.002008c-.0344267-1.412139-.1490383-3.316066-.4889418-4.7872427l-.1595128.1050345c-.0914381.0914381-.2582366.241129-.4968563.429513-.3914106.3090084-.8471669.6169518-1.3638756.9040122-1.4763402.820189-3.1516303 1.3129214-4.9928215 1.3129214-2.9011773 0-4.7923174-1.576174-5.8390924-3.5568784-.0428329-.0810484-.1251651-.3051737-.2741571-.7325555-.1618368.0848062-.3211524.1750042-.4780255.2693368l1.0040358 1.5432661-.8382169.5453368-1.000866-1.5383938zm-6.07367783 2.469888c-.66373349 0-.9945558.0000001-.9945558.0000001-1.65986098 0-3.00544417 1.3496704-3.00544417 3.0092545 0 .342002.04329104.673956.12467602.9907455h1.19624683 7.67907715c1.1380134 0 2.2705644-.2453866 3.4998856-.5075386-.0016623-.0570175-.0216282-.1679125-.0720992-.2688546-.0743554-.1487107-.1866996-.2236068-.4277864-.2236068h-5.5c-1.07141314 0-1.80281895-.4876039-2.19721362-1.2763932-.22845131-.4569026-.30278641-.9029132-.30278641-1.2236068zm-3.46590811 5.0000001c.69274363 1.1953879 1.98910558 2 3.46872461 2h1.99718353v1h1v-1h2v1h1v-1h2v1h1v-1h2v1h1v-1h2v1h1v-1h2v1h1v-1h.9964051c1.1065549 0 2.0140617-.9001762 2.0085464-1.992017 0 0 .0118761-.3901183.0101438-1.007983h-7.0150953s-3 0-4.6967534.3435373c-1.4990909.303517-2.8939232.6564627-4.3032466.6564627h-7.67907715zm11.77056544-8.6944262c.5380284-.1907455 1.102332-.3055738 1.6953427-.3055738 1.5 0 1 1.9714355 4 1.9714355s2.7208252-1.9714355 5-1.9714355c.5343897 0 .9284078.495209 1.2185013 1.2534073l-.4958514.3305676c-.1410152.1272836-.2789042.2510302-.485597.4142087-.3507769.2769291-.7622081.5549232-1.2298744.8147378-1.3361598.742311-2.8483697 1.1870786-4.5071785 1.1870786-2.4592105 0-4.0633119-1.336941-4.9549663-3.0241268-.0089545-.0169437-.1129599-.3044367-.2403764-.6702994z" fill-rule="evenodd"/></svg>