<svg height="64" viewBox="0 0 64 64" width="64" xmlns="http://www.w3.org/2000/svg"><g fill="none" fill-rule="evenodd"><path d="m23.948706 50.3008464v.6991536h-20.948706v-15.1611677h17.1036052c12.2771677-4.8424053 38.566562-12.8388323 38.566562-12.8388323l1.1981393 3.0751001c.4015114 1.0305041-.1280633 2.1206999-1.1844492 2.4308855l-34.7351513 10.1992506v6.5418876h8.9752634c1.1033922 0 1.9978683.9035044 1.9978683 1.997365v3.0563576z" fill="#d8d8d8"/><circle cx="20" cy="42" fill="#fff" r="2"/><g fill="#5b68c0"><path d="m3 49h60v2.9951185c0 1.1072655-.8947304 2.0048815-1.9963074 2.0048815h-56.00738523c-1.10253012 0-1.99630737-.8938998-1.99630737-2.0048815z"/><path d="m3 48c0-1.1045695.89451376-2 1.99406028-2h12.01187942c1.1012891 0 1.9940603.8877296 1.9940603 2v2h-16z"/><path d="m-1.49117278 23.4069112 62.81907788-1.0260605v8.0041738c0 2.2068339-1.7956808 3.9958262-4.0065556 3.9958262h-53.99713704c-1.10253012 0-2.21751569-.8611066-2.49381264-1.936659z" transform="matrix(.93969262 -.34202014 -.34202014 -.93969262 11.511111 65.282753)"/></g></g></svg>