<svg viewBox="0 0 72 72" xmlns="http://www.w3.org/2000/svg"><g stroke-miterlimit="10"><path d="m38 55s9 4 12-8-12 8-12 8z" fill="#b1cc33" stroke="#b1cc33" stroke-linecap="round" stroke-linejoin="round" stroke-width="1.8"/><path d="m39 48s6.125-2.6797 6.6514.8374c.1505 1.0055-.2436 2.0175-.9153 2.7807l-4.736 5.3818-.0001.0001c.0019.0006 6.4303 1.91 5.1667 3.4167-2.1665 2.5831-11.1653.5836-11.1667.5833v-.0001l1-4.9998-.0001-.0001c-15.9969 3.9992-19.9984-10.9944-19.9999-11 .005.0041 14.1677 11.6649 20.0833 1.8333 5.9167-9.8333 3.0834-29.6666 15.5-29.25 8.358.2805 9.844 4.7143 9.9224 7.583.0381 1.393-.2557 2.417-.2557 2.417-.0778.5793-.1852 1.086-.3188 1.53-1.1539 3.8354-4.2597 2.9991-7.0978 3.97-3.1663 1.0832-2.0836 4.4158-2.0833 4.4167h.0001c5.7498-1.4999 5.2498 5.5 3.2498 3.5s-3.1666 1.3332-3.1666 1.3332l-.0001.0002c0 .0002.1667 6.6666-1.8333 8.6666" fill="#b1cc33" stroke="#b1cc33" stroke-linecap="round" stroke-linejoin="round" stroke-width="1.8"/><path d="m51 43c2 0 4 3 4 3 1 4-4.4167 8.3333-4.4167 8.3333s11.4167 2.6667 2.0834 3c-9.3334.3334-6.6667-2.3333-6.6667-2.3333s3-2 5-9" fill="#5c9e31" stroke="#5c9e31" stroke-width="1.8"/><g stroke-linecap="round" stroke-linejoin="round"><path d="m43 41s2-3.8333 4.5-1.4167c2.5 2.4167-.5 3.4167-1.5 2.4167s-2 2-2 2" fill="none" stroke="#000" stroke-width="2"/><path d="m39 48s6.125-2.6797 6.6514.8374c.1505 1.0055-.2436 2.0174-.9153 2.7807l-4.7361 5.3819s6.4305 1.9098 5.1667 3.4167c-2.1667 2.5833-11.1667.5833-11.1667.5833l1-5c-16 4-20-11-20-11s14.1667 11.6667 20.0833 1.8333 3.0833-29.6667 15.5-29.25c8.358.2805 9.844 4.7143 9.9224 7.583.0381 1.393-.2557 2.417-.2557 2.417-.0778.5793-.1852 1.086-.3188 1.53-1.1539 3.8354-4.2597 2.9991-7.0978 3.97-3.1667 1.0834-2.0834 4.4167-2.0834 4.4167 5.75-1.5 5.25 5.5 3.25 3.5s-3.1667 1.3333-3.1667 1.3333.1667 6.6667-1.8333 8.6667" fill="none" stroke="#000" stroke-width="2"/><path d="m54.5 44.8333c3.5 2.8333-3.9167 9.5-3.9167 9.5s11.4167 2.6667 2.0834 3c-9.3334.3334-6.6667-2.3333-6.6667-2.3333" fill="none" stroke="#000" stroke-width="2"/></g></g></svg>