<svg viewBox="0 0 400 300" xmlns="http://www.w3.org/2000/svg"><path d="m174.09 164.57s-9.57-3.38-19 6.19-5.09 23.16-5.09 23.16 10.39 2 20-10.39a21.84 21.84 0 0 0 4.09-18.96z" fill="#70cc40"/><path d="m151.75 195.05a11.15 11.15 0 0 1 -2-.15 1 1 0 0 1 -.77-.68c-.18-.58-4.28-14.27 5.41-24.16s19.59-6.58 20-6.43a1 1 0 0 1 .61.63 22.63 22.63 0 0 1 -4.29 19.88c-7.43 9.66-15.36 10.91-18.96 10.91zm-1-2a15.88 15.88 0 0 0 5.45-.63c3.29-.92 8.21-3.32 13-9.46a21.23 21.23 0 0 0 4.1-17.55c-2-.51-9.7-1.78-17.42 6.09s-5.77 18.81-5.12 21.5z" fill="#093f68"/><path d="m143.69 211.18h-.17a1 1 0 0 1 -.82-1.15c.12-.76 3.26-18.74 21.32-35.67a1 1 0 1 1 1.37 1.46c-17.54 16.44-20.69 34.36-20.72 34.54a1 1 0 0 1 -.98.82z" fill="#093f68"/><path d="m108.19 178.88s7.11-4.17 16.08 2 7.73 17.69 7.73 17.69-8 3.22-17.55-5.2a17.75 17.75 0 0 1 -6.26-14.49z" fill="#70cc40"/><path d="m128 200.19c-3.43 0-8.56-1.1-14.21-6.07a18.61 18.61 0 0 1 -6.55-15.36 1 1 0 0 1 .49-.74c.31-.18 7.77-4.41 17.15 2.06s8.17 18.11 8.11 18.6a1 1 0 0 1 -.62.82 12.43 12.43 0 0 1 -4.37.69zm-18.81-20.67a16.79 16.79 0 0 0 5.92 13.1c7.56 6.65 14 5.7 15.93 5.2.09-2.42-.13-11.14-7.3-16.1s-12.96-2.94-14.59-2.2z" fill="#093f68"/><path d="m139.48 211.57a1 1 0 0 1 -1-.74c0-.13-3.66-13-22.77-25.81a1 1 0 0 1 -.27-1.39 1 1 0 0 1 1.39-.28c19.79 13.26 23.44 26.42 23.59 27a1 1 0 0 1 -.72 1.22 1.07 1.07 0 0 1 -.22 0z" fill="#093f68"/><path d="m172.42 227.83a5.81 5.81 0 0 0 .59-2.59c0-3.86-3.63-7-8.11-7a9.19 9.19 0 0 0 -1.92.2c-.92-3-4.08-5.22-7.85-5.22a9.64 9.64 0 0 0 -2 .23c-.72-4.58-5.26-8.11-10.78-8.11-5 0-9.29 3-10.51 7a11.34 11.34 0 0 0 -2.63-.32 9.62 9.62 0 0 0 -8.82 5.12h-.7c-4.48 0-8.12 3.13-8.12 7a6.41 6.41 0 0 0 1.28 3.72z" fill="#ad7972"/><path d="m172.42 228.83h-59.6a1 1 0 0 1 -.81-.42 7.37 7.37 0 0 1 -1.47-4.3c0-4.41 4.09-8 9.12-8h.11a10.71 10.71 0 0 1 9.41-5.1 12 12 0 0 1 2 .17c1.69-4.07 6.14-6.84 11.16-6.84 5.52 0 10.3 3.36 11.55 8a9.29 9.29 0 0 1 9.75 5c5.61-.73 10.39 3.14 10.39 7.91a6.79 6.79 0 0 1 -.69 3 1 1 0 0 1 -.92.58zm-59.06-2h58.4a5 5 0 0 0 .25-1.59c0-3.31-3.19-6-7.11-6a8.6 8.6 0 0 0 -1.72.18 1 1 0 0 1 -1.16-.69c-.81-2.65-3.64-4.51-6.89-4.51a8.18 8.18 0 0 0 -1.81.21 1 1 0 0 1 -.78-.15 1 1 0 0 1 -.43-.67c-.65-4.15-4.86-7.27-9.79-7.27-4.5 0-8.43 2.58-9.56 6.28a1 1 0 0 1 -1.19.68 10.34 10.34 0 0 0 -2.39-.29 8.6 8.6 0 0 0 -7.92 4.55 1 1 0 0 1 -1 .57h-.63c-3.93 0-7.12 2.69-7.12 6a5.3 5.3 0 0 0 .85 2.7z" fill="#093f68"/><path d="m224.43 148.36a3.78 3.78 0 0 1 -2.09.41l-40.46-14.77a3.77 3.77 0 1 1 .66-7.52l33.56 2.94a3.78 3.78 0 0 1 3.44 4.09c-.12 1.31 5.98 14.27 4.89 14.85z" fill="#68e1fd"/><path d="m222.68 149.79h-.43a1.14 1.14 0 0 1 -.25-.06l-40.34-14.73a4.78 4.78 0 0 1 1-9.5l33.56 2.94a4.78 4.78 0 0 1 4.34 5.17c.05.5 1.14 3.22 2 5.41 3.12 7.82 3.67 9.57 2.35 10.26a4.73 4.73 0 0 1 -2.23.51zm-.13-2a2.68 2.68 0 0 0 1-.14 67.57 67.57 0 0 0 -2.85-7.93c-1.64-4.1-2.2-5.6-2.14-6.32a2.74 2.74 0 0 0 -.64-2 2.78 2.78 0 0 0 -1.88-1l-33.57-2.93a2.77 2.77 0 0 0 -.47 5.53 1.22 1.22 0 0 1 .26.06z" fill="#093f68"/><path d="m177.42 115.78c6.3.09 11.32 6 11.21 13.26s-5.32 13-11.62 12.9z" fill="#68e1fd"/><path d="m177.17 142.94h-.17a1 1 0 0 1 -1-1l.41-26.17a1 1 0 0 1 .3-.7 1 1 0 0 1 .71-.28c6.85.1 12.32 6.51 12.2 14.27s-5.69 13.88-12.45 13.88zm1.23-26.09-.4 24.05c5.29-.5 9.51-5.61 9.61-11.88s-3.94-11.5-9.21-12.17z" fill="#093f68"/><path d="m247.81 95.72-34.91 18.36a6.77 6.77 0 0 1 -9.14-2.84l-4-7.56a26.49 26.49 0 1 1 46.92-24.68l4 7.56a6.75 6.75 0 0 1 -2.87 9.16zm-37.73 11.28 33.53-17.63-3.61-6.83a18.94 18.94 0 0 0 -33.53 17.63z" fill="#093f68"/><path d="m209.76 115.86a8 8 0 0 1 -2.31-.35 7.76 7.76 0 0 1 -4.58-3.8l-4-7.56a27.49 27.49 0 0 1 48.66-25.59l4 7.56a7.78 7.78 0 0 1 -3.26 10.49l-34.9 18.39a7.77 7.77 0 0 1 -3.61.86zm13.42-50a25.51 25.51 0 0 0 -22.51 37.36l4 7.56a5.77 5.77 0 0 0 7.78 2.42l34.92-18.36a5.78 5.78 0 0 0 2.42-7.79l-4-7.56a25.32 25.32 0 0 0 -15-12.47 25.84 25.84 0 0 0 -7.61-1.16zm-13.1 42.14a1 1 0 0 1 -.89-.54l-3.61-6.86a19.94 19.94 0 0 1 35.3-18.57l3.61 6.87a1 1 0 0 1 -.42 1.35l-33.53 17.63a.93.93 0 0 1 -.46.12zm13.12-34.59a18 18 0 0 0 -15.85 26.29l3.15 6 31.76-16.7-3.15-6a18 18 0 0 0 -15.91-9.6z" fill="#093f68"/><path d="m283.9 64.24c-5.47-5.76-13.17-7.61-19.63-4.72-7.63 3.42-10.77 11.77-12 19.32l-5.48-8.18a2 2 0 0 0 -2.55-.65l-50.49 26.55a2 2 0 0 0 -.92 2.47l27.44 69.16a2 2 0 0 0 2.74 1l64.49-33.89a2 2 0 0 0 .72-2.84l-7.11-10.6c6.78-13.26 10.23-25.3 10.26-35.77.03-11.52-4.05-18.24-7.47-21.85zm-7.66 50.36-17.17-25.6c-.11-7.33 1.22-19.44 8.28-22.57 3.5-1.56 7.84-.37 11.07 3 9.31 9.81 5.26 29.08-2.18 45.17z" fill="#68e1fd"/><path d="m222.1 170.43a3 3 0 0 1 -1-.18 3 3 0 0 1 -1.73-1.69l-27.47-69.16a3 3 0 0 1 1.38-3.72l50.49-26.55a3 3 0 0 1 3.85 1l4.12 6.15c1.93-8.87 6.09-14.94 12.12-17.65 6.85-3.06 15-1.12 20.76 4.95 3.55 3.74 7.78 10.69 7.75 22.54 0 10.49-3.43 22.5-10.1 35.7l6.78 10.12a3 3 0 0 1 -1.09 4.28l-64.48 33.9a2.93 2.93 0 0 1 -1.38.31zm23.05-99.64a.93.93 0 0 0 -.45.11l-50.49 26.55a1 1 0 0 0 -.45 1.21l27.43 69.16a1 1 0 0 0 .57.55 1 1 0 0 0 .79-.05l64.45-33.9a1 1 0 0 0 .49-.62.94.94 0 0 0 -.14-.78l-7.1-10.6a1 1 0 0 1 -.06-1c6.7-13.12 10.12-25 10.15-35.33 0-11.18-3.9-17.67-7.2-21.15-5.17-5.45-12.43-7.21-18.49-4.5s-9.82 8.93-11.39 18.56a1 1 0 0 1 -1.82.39l-5.44-8.17a1 1 0 0 0 -.85-.43zm31.09 44.81a1 1 0 0 1 -.83-.44l-17.17-25.63a1 1 0 0 1 -.17-.54c-.07-4.56.38-19.73 8.88-23.5 3.88-1.73 8.67-.45 12.2 3.26 12.09 12.74 1.53 38.64-2 46.27a1 1 0 0 1 -.83.58zm-16.18-26.93 16 23.88c8.36-18.88 9-34.66 1.63-42.42-2.94-3.09-6.84-4.19-9.94-2.81-5.75 2.57-7.75 12.68-7.69 21.35z" fill="#093f68"/><path d="m216.86 159.6 66.55-34.99" fill="#ffbc0e"/><path d="m216.86 160.6a1 1 0 0 1 -.89-.54 1 1 0 0 1 .42-1.35l66.55-35a1 1 0 0 1 .93 1.77l-66.55 35a1 1 0 0 1 -.46.12z" fill="#093f68"/><path d="m246 114.52c3.55 6.76.5 9.81-4 12.18s-8.75 3.15-12.3-3.6-.56-20.86-.56-20.86 13.35 5.53 16.86 12.28z" fill="#fff"/><path d="m236.51 129.42c-2.69 0-5.35-1.45-7.66-5.85-3.68-7-.78-20.95-.66-21.54a1 1 0 0 1 1.36-.72c.56.24 13.7 5.76 17.37 12.75 4.07 7.73.05 11.17-4.42 13.52a13.34 13.34 0 0 1 -5.99 1.84zm-6.59-25.75c-.61 3.51-2.06 13.73.7 19 3.06 5.83 6.46 5.54 10.95 3.18s6.65-5 3.58-10.82c-2.75-5.28-11.99-9.88-15.23-11.36z" fill="#093f68"/><path d="m303.88 228.83h-207.76a1 1 0 0 1 0-2h207.76a1 1 0 0 1 0 2z" fill="#093f68"/><g fill="#dfeaef"><path d="m167.47 130.56a1 1 0 0 1 -.3-2c1.26-.39 2-.54 2-.55a1 1 0 0 1 .38 2 17.12 17.12 0 0 0 -1.82.49 1 1 0 0 1 -.26.06z"/><path d="m134.59 175h-.16a1 1 0 0 1 -.83-1.14c.21-1.4.47-2.79.75-4.15a1 1 0 1 1 2 .41c-.27 1.32-.51 2.68-.73 4a1 1 0 0 1 -1.03.88zm1.69-8.14a.78.78 0 0 1 -.26 0 1 1 0 0 1 -.71-1.22c.36-1.37.77-2.73 1.2-4a1 1 0 0 1 1.9.63c-.42 1.28-.81 2.6-1.16 3.93a1 1 0 0 1 -.97.7zm2.6-7.9a1 1 0 0 1 -.92-1.38c.53-1.32 1.1-2.62 1.71-3.87a1 1 0 1 1 1.8.88c-.59 1.2-1.14 2.46-1.66 3.74a1 1 0 0 1 -.93.67zm3.64-7.49a1 1 0 0 1 -.5-.13 1 1 0 0 1 -.36-1.37c.71-1.22 1.47-2.43 2.27-3.58a1 1 0 1 1 1.64 1.14c-.76 1.11-1.5 2.27-2.18 3.45a1 1 0 0 1 -.87.53zm4.74-6.83a1 1 0 0 1 -.64-.23 1 1 0 0 1 -.13-1.41c.9-1.09 1.85-2.15 2.83-3.16a1 1 0 0 1 1.42 0 1 1 0 0 1 0 1.41c-.94 1-1.86 2-2.72 3a1 1 0 0 1 -.76.43zm5.82-5.94a1 1 0 0 1 -.65-1.76c1.08-.92 2.21-1.8 3.36-2.61a1 1 0 1 1 1.15 1.63c-1.1.78-2.18 1.62-3.21 2.5a1 1 0 0 1 -.65.28zm6.8-4.8a1 1 0 0 1 -.5-1.87c1.25-.71 2.52-1.36 3.8-1.94a1 1 0 0 1 .82 1.91 37.6 37.6 0 0 0 -3.63 1.85 1 1 0 0 1 -.49.09z"/><path d="m133.85 181.19h-.09a1 1 0 0 1 -.91-1.08c.06-.68.12-1.35.19-2a1 1 0 0 1 1.11-.89 1 1 0 0 1 .88 1.1c-.07.65-.13 1.31-.19 2a1 1 0 0 1 -.99.87z"/><path d="m168.18 122h-.19s-.7-.13-1.89-.26a1 1 0 1 1 .21-2c1.29.14 2 .28 2.06.29a1 1 0 0 1 -.19 2z"/><path d="m117.85 154.75a1 1 0 0 1 -.3 0 1 1 0 0 1 -.66-1.25c.4-1.31.85-2.61 1.32-3.84a1 1 0 0 1 1.28-.59 1 1 0 0 1 .59 1.29c-.46 1.2-.89 2.46-1.28 3.73a1 1 0 0 1 -.95.66zm2.83-7.47a1.06 1.06 0 0 1 -.42-.09 1 1 0 0 1 -.49-1.33c.57-1.25 1.19-2.47 1.83-3.64a1 1 0 0 1 1.75 1c-.62 1.12-1.21 2.3-1.76 3.5a1 1 0 0 1 -.91.56zm3.86-7a1 1 0 0 1 -.83-1.56c.76-1.14 1.57-2.25 2.41-3.3a1 1 0 0 1 1.41-.15 1 1 0 0 1 .15 1.4c-.8 1-1.58 2.07-2.3 3.16a1 1 0 0 1 -.84.46zm5-6.24a1 1 0 0 1 -.7-.28 1 1 0 0 1 0-1.41c.95-1 2-1.93 3-2.8a1 1 0 0 1 1.29 1.53c-1 .83-1.94 1.73-2.85 2.66a1 1 0 0 1 -.73.31zm6.1-5.15a1 1 0 0 1 -.56-1.82c1.12-.77 2.3-1.49 3.49-2.15a1 1 0 0 1 1 1.76 38.85 38.85 0 0 0 -3.32 2 1 1 0 0 1 -.6.22zm7-3.84a1 1 0 0 1 -.92-.6 1 1 0 0 1 .53-1.32c1.24-.52 2.53-1 3.84-1.42a1 1 0 1 1 .61 1.9c-1.25.4-2.48.86-3.67 1.36a.88.88 0 0 1 -.37.09zm7.62-2.44a1 1 0 0 1 -.22-2c1.32-.3 2.67-.54 4-.73a1 1 0 0 1 1.13.85 1 1 0 0 1 -.85 1.13c-1.3.18-2.6.41-3.86.7zm7.92-1.1a1 1 0 0 1 0-2c1.37-.08 2.8-.1 4.08-.08a1 1 0 0 1 0 2c-1.23 0-2.6 0-3.93.08z"/><path d="m116.3 160.6a.83.83 0 0 1 -.22 0 1 1 0 0 1 -.76-1.19c.15-.67.31-1.33.47-2a1 1 0 0 1 1.94.48c-.16.63-.31 1.27-.45 1.93a1 1 0 0 1 -.98.78z"/><path d="m169.62 143.76a1 1 0 0 1 -.73-1.68c.86-.93 1.43-1.48 1.43-1.48a1 1 0 0 1 1.38 1.4s-.54.53-1.35 1.4a1 1 0 0 1 -.73.36z"/><path d="m164 151.07a1 1 0 0 1 -.5-.14 1 1 0 0 1 -.36-1.36 35.54 35.54 0 0 1 2.67-3.92 1 1 0 1 1 1.58 1.23 31.59 31.59 0 0 0 -2.52 3.69 1 1 0 0 1 -.87.5z"/><path d="m161.89 157.26a1 1 0 0 1 -1-1 9.43 9.43 0 0 1 .34-2.2 1 1 0 0 1 1.93.51 7.69 7.69 0 0 0 -.27 1.75 1 1 0 0 1 -1 .94z"/></g><path d="m206.64 226.37s3-9.29-9.65-13.23c.01 0-2.67 11.77 9.65 13.23z" fill="#70cc40"/><path d="m206.64 227.37h-.12c-4-.47-6.93-2-8.75-4.6-3-4.22-1.81-9.62-1.76-9.84a1 1 0 0 1 .48-.65 1 1 0 0 1 .8-.09c4.67 1.46 7.87 3.79 9.5 6.94a10.49 10.49 0 0 1 .8 7.56 1 1 0 0 1 -.95.68zm-8.83-12.9a10.92 10.92 0 0 0 1.6 7.15 9.5 9.5 0 0 0 6.44 3.63 8.69 8.69 0 0 0 -.85-5.25c-1.26-2.39-3.67-4.25-7.19-5.53z" fill="#093f68"/><path d="m208.63 226.82s9.72-.94 8.28-14.13c0 0-11.86 2.31-8.28 14.13z" fill="#70cc40"/><path d="m208.63 227.82a1 1 0 0 1 -1-.71c-1.16-3.84-.91-7.16.72-9.86 2.68-4.42 8.1-5.5 8.33-5.54a1 1 0 0 1 .78.18 1 1 0 0 1 .4.69c.54 4.87-.33 8.73-2.56 11.48a10.5 10.5 0 0 1 -6.61 3.75zm7.37-13.82a10.89 10.89 0 0 0 -5.92 4.33 9.42 9.42 0 0 0 -.75 7.35 8.68 8.68 0 0 0 4.46-2.88c1.71-2.13 2.46-5.09 2.21-8.8z" fill="#093f68"/><path d="m241.76 226.37s3-9.29-9.64-13.23c0 0-2.67 11.77 9.64 13.23z" fill="#70cc40"/><path d="m241.76 227.37h-.11c-4-.47-6.93-2-8.75-4.6-3-4.22-1.81-9.62-1.76-9.84a1 1 0 0 1 1.27-.74c4.68 1.46 7.88 3.79 9.51 6.94a10.52 10.52 0 0 1 .79 7.56 1 1 0 0 1 -.95.68zm-8.82-12.9a10.86 10.86 0 0 0 1.6 7.15 9.5 9.5 0 0 0 6.44 3.63 8.69 8.69 0 0 0 -.86-5.25c-1.25-2.39-3.66-4.25-7.18-5.53z" fill="#093f68"/><path d="m243.76 226.82s9.72-.94 8.28-14.13c-.04 0-11.87 2.31-8.28 14.13z" fill="#70cc40"/><path d="m243.76 227.82a1 1 0 0 1 -1-.71c-1.16-3.84-.92-7.16.72-9.86 2.68-4.42 8.1-5.5 8.33-5.54a1 1 0 0 1 .78.18 1 1 0 0 1 .4.69c.53 4.87-.33 8.73-2.56 11.48a10.49 10.49 0 0 1 -6.62 3.75zm7.38-13.82a10.9 10.9 0 0 0 -5.91 4.33 9.42 9.42 0 0 0 -.75 7.35 8.68 8.68 0 0 0 4.46-2.88c1.69-2.13 2.43-5.09 2.2-8.8z" fill="#093f68"/><path d="m276.89 226.37s3-9.29-9.64-13.23c0 0-2.67 11.77 9.64 13.23z" fill="#70cc40"/><path d="m276.89 227.37h-.12c-4-.47-6.92-2-8.74-4.6-3-4.22-1.81-9.62-1.76-9.84a1 1 0 0 1 .48-.65 1 1 0 0 1 .79-.09c4.68 1.46 7.88 3.79 9.5 6.94a10.49 10.49 0 0 1 .8 7.56 1 1 0 0 1 -.95.68zm-8.83-12.9a10.88 10.88 0 0 0 1.61 7.15 9.5 9.5 0 0 0 6.44 3.63 8.69 8.69 0 0 0 -.86-5.25c-1.25-2.39-3.66-4.25-7.19-5.53z" fill="#093f68"/><path d="m278.89 226.82s9.72-.94 8.28-14.13c0 0-11.87 2.31-8.28 14.13z" fill="#70cc40"/><path d="m278.89 227.82a1 1 0 0 1 -1-.71c-1.16-3.84-.92-7.16.72-9.86 2.68-4.42 8.1-5.5 8.33-5.54a1 1 0 0 1 1.18.87c.53 4.87-.33 8.73-2.56 11.48a10.49 10.49 0 0 1 -6.62 3.75zm7.38-13.82a11 11 0 0 0 -5.92 4.33 9.51 9.51 0 0 0 -.75 7.35 8.66 8.66 0 0 0 4.47-2.88c1.69-2.13 2.43-5.09 2.2-8.8z" fill="#093f68"/></svg>